<svg width="6" height="10" viewBox="0 0 6 10" fill="none" xmlns="http://www.w3.org/2000/svg">
<path d="M4.83766 4.87519L0.519932 9.12733C0.484383 9.1616 0.456279 9.20228 0.437246 9.24702C0.418212 9.29177 0.408628 9.33969 0.409047 9.388C0.409465 9.43632 0.419879 9.48408 0.439686 9.52851C0.459492 9.57295 0.488297 9.61318 0.524436 9.64687C0.560573 9.68057 0.603325 9.70706 0.650218 9.72482C0.697112 9.74258 0.747215 9.75125 0.797628 9.75033C0.848041 9.74941 0.897762 9.73892 0.943916 9.71946C0.99007 9.70001 1.03174 9.67197 1.06651 9.63698L5.64253 5.13001C5.7118 5.06179 5.75055 4.97037 5.75055 4.87519C5.75055 4.78001 5.7118 4.68858 5.64253 4.62036L1.06651 0.113392C1.03174 0.0784025 0.99007 0.0503683 0.943916 0.0309124C0.897762 0.0114565 0.848041 0.000965118 0.797628 4.57764e-05C0.747215 -0.000874519 0.697112 0.00779533 0.650218 0.0255537C0.603325 0.0433121 0.560573 0.0698061 0.524436 0.103502C0.488297 0.137198 0.459492 0.177428 0.439686 0.221864C0.419879 0.266298 0.409465 0.314056 0.409047 0.362373C0.408628 0.41069 0.418212 0.458608 0.437246 0.503352C0.456279 0.548096 0.484383 0.588778 0.519932 0.623046L4.83766 4.87519Z" fill="#44585E"/>
</svg>
