<svg width="22" height="22" viewBox="0 0 22 22" fill="none" xmlns="http://www.w3.org/2000/svg">
<g clip-path="url(#clip0_1_253)">
<path d="M12.6019 16.8269L18.2398 11.1597L12.6019 5.49247C12.551 5.42561 12.4863 5.37046 12.4123 5.33077C12.3382 5.29108 12.2564 5.26777 12.1726 5.26242C12.0887 5.25707 12.0046 5.2698 11.9261 5.29976C11.8476 5.32971 11.7764 5.37618 11.7174 5.43603C11.6584 5.49589 11.613 5.56772 11.5841 5.64666C11.5553 5.72561 11.5438 5.80982 11.5503 5.89361C11.5569 5.9774 11.5813 6.0588 11.6221 6.13231C11.6628 6.20582 11.7189 6.26971 11.7865 6.31967L16.0046 10.573L4.78167 10.573C4.62608 10.573 4.47686 10.6348 4.36684 10.7448C4.25682 10.8549 4.19501 11.0041 4.19501 11.1597C4.19501 11.3153 4.25682 11.4645 4.36684 11.5745C4.47686 11.6845 4.62608 11.7463 4.78167 11.7463L16.0046 11.7463L11.7865 15.9997C11.6768 16.1101 11.6155 16.2597 11.616 16.4153C11.6166 16.571 11.6789 16.7201 11.7894 16.8298C11.8999 16.9395 12.0494 17.0008 12.2051 17.0003C12.3608 16.9997 12.5098 16.9373 12.6195 16.8269H12.6019Z" fill="#545454"/>
</g>
<defs>
<clipPath id="clip0_1_253">
<rect width="21.12" height="21.12" fill="white" transform="matrix(0 1 -1 0 21.76 0.600098)"/>
</clipPath>
</defs>
</svg>
