<svg width="17" height="27" viewBox="0 0 17 27" fill="none" xmlns="http://www.w3.org/2000/svg">
<path d="M9.25 10.2836H16.1875L15.4167 13.2218H9.25V26.4435H6.16667V13.2218H0V10.2836H6.16667V7.53346C6.16667 4.91408 6.45342 3.96359 6.98992 3.00575C7.51564 2.05937 8.32778 1.28546 9.32092 0.784491C10.3261 0.273249 11.3235 0 14.0723 0C14.8771 0 15.5832 0.0734543 16.1875 0.220363V2.93817H14.0723C12.0312 2.93817 11.4099 3.05276 10.7747 3.37595C10.3188 3.60294 9.94695 3.95778 9.70942 4.39256C9.37025 4.99635 9.25 5.58839 9.25 7.53346V10.2836Z" fill="#F8F8F8"/>
</svg>
