<svg width="24" height="24" viewBox="0 0 24 24" fill="none" xmlns="http://www.w3.org/2000/svg">
<path d="M4.29599 12L12.788 3.27303C12.8579 3.2027 12.9132 3.11921 12.9506 3.02737C12.988 2.93554 13.0069 2.8372 13.0061 2.73803C13.0053 2.63887 12.9848 2.54085 12.9458 2.44965C12.9069 2.35846 12.8502 2.27589 12.7791 2.20673C12.7081 2.13757 12.624 2.0832 12.5317 2.04675C12.4395 2.01031 12.341 1.99251 12.2418 1.9944C12.1427 1.99629 12.0449 2.01782 11.9541 2.05775C11.8633 2.09768 11.7814 2.15522 11.713 2.22703L2.71299 11.477C2.57677 11.617 2.50055 11.8047 2.50055 12C2.50055 12.1954 2.57677 12.383 2.71299 12.523L11.713 21.773C11.7814 21.8448 11.8633 21.9024 11.9541 21.9423C12.0449 21.9822 12.1427 22.0038 12.2418 22.0057C12.341 22.0076 12.4395 21.9898 12.5317 21.9533C12.624 21.9169 12.7081 21.8625 12.7791 21.7933C12.8502 21.7242 12.9069 21.6416 12.9458 21.5504C12.9848 21.4592 13.0053 21.3612 13.0061 21.262C13.0069 21.1629 12.988 21.0645 12.9506 20.9727C12.9132 20.8809 12.8579 20.7974 12.788 20.727L4.29599 12Z" fill="#545454"/>
</svg>
