<svg width="24" height="24" viewBox="0 0 24 24" fill="none" xmlns="http://www.w3.org/2000/svg">
<path d="M19.705 11.9995L11.213 20.7265C11.1431 20.7968 11.0878 20.8803 11.0504 20.9721C11.0129 21.064 10.9941 21.1623 10.9949 21.2615C10.9957 21.3606 11.0162 21.4587 11.0552 21.5499C11.0941 21.6411 11.1508 21.7236 11.2218 21.7928C11.2929 21.8619 11.377 21.9163 11.4692 21.9528C11.5615 21.9892 11.66 22.007 11.7592 22.0051C11.8583 22.0032 11.9561 21.9817 12.0469 21.9418C12.1376 21.9018 12.2196 21.8443 12.288 21.7725L21.288 12.5225C21.4242 12.3825 21.5004 12.1948 21.5004 11.9995C21.5004 11.8041 21.4242 11.6165 21.288 11.4765L12.288 2.22648C12.2196 2.15466 12.1376 2.09713 12.0469 2.0572C11.9561 2.01727 11.8583 1.99574 11.7592 1.99385C11.66 1.99196 11.5615 2.00975 11.4692 2.0462C11.377 2.08265 11.2929 2.13702 11.2218 2.20618C11.1508 2.27534 11.0941 2.3579 11.0552 2.4491C11.0162 2.5403 10.9957 2.63832 10.9949 2.73748C10.9941 2.83665 11.0129 2.93499 11.0504 3.02682C11.0878 3.11865 11.1431 3.20215 11.213 3.27248L19.705 11.9995Z" fill="#545454"/>
</svg>
